<svg width="42" height="42" viewBox="0 0 42 42" fill="none" xmlns="http://www.w3.org/2000/svg">
<path d="M21 0.166626C9.49999 0.166626 0.166656 9.49996 0.166656 21C0.166656 32.5 9.49999 41.8333 21 41.8333C32.5 41.8333 41.8333 32.5 41.8333 21C41.8333 9.49996 32.5 0.166626 21 0.166626ZM15.7917 26.5625V15.4375C15.7917 13.7916 17.625 12.7916 19 13.6875L27.6458 19.25C27.9382 19.4388 28.1786 19.6979 28.3451 20.0036C28.5116 20.3093 28.5988 20.6519 28.5988 21C28.5988 21.348 28.5116 21.6906 28.3451 21.9963C28.1786 22.302 27.9382 22.5611 27.6458 22.75L19 28.3125C17.625 29.2083 15.7917 28.2083 15.7917 26.5625Z" fill="#F6F4F5"/>
</svg>
