<svg width="50" height="50" viewBox="0 0 50 50" fill="none" xmlns="http://www.w3.org/2000/svg">
<path d="M25 4.16663C13.5 4.16663 4.16666 13.5 4.16666 25C4.16666 36.5 13.5 45.8333 25 45.8333C36.5 45.8333 45.8333 36.5 45.8333 25C45.8333 13.5 36.5 4.16663 25 4.16663ZM19.7917 30.5625V19.4375C19.7917 17.7916 21.625 16.7916 23 17.6875L31.6458 23.25C31.9382 23.4388 32.1786 23.6979 32.3451 24.0036C32.5116 24.3093 32.5988 24.6519 32.5988 25C32.5988 25.348 32.5116 25.6906 32.3451 25.9963C32.1786 26.302 31.9382 26.5611 31.6458 26.75L23 32.3125C21.625 33.2083 19.7917 32.2083 19.7917 30.5625Z" fill="#F6F4F5"/>
</svg>
